<?xml version="1.0" standalone="no"?>
<!DOCTYPE svg PUBLIC "-//W3C//DTD SVG 20010904//EN"
 "http://www.w3.org/TR/2001/REC-SVG-20010904/DTD/svg10.dtd">
<svg version="1.0" xmlns="http://www.w3.org/2000/svg"
 width="250.000000pt" height="250.000000pt" viewBox="0 0 250.000000 250.000000"
 preserveAspectRatio="xMidYMid meet">
<metadata>
Created by potrace 1.11, written by Peter Selinger 2001-2013
</metadata>
<g transform="translate(0.000000,250.000000) scale(0.100000,-0.100000)"
fill="#000000" stroke="none">
<path d="M1245 2404 c-4 -16 -9 -36 -12 -44 -3 -8 -7 -25 -9 -38 -2 -12 -20
-75 -40 -139 -39 -131 -86 -239 -133 -307 -36 -52 -37 -58 -13 -55 77 7 139
-37 149 -108 7 -56 -2 -87 -36 -122 -89 -91 -247 -14 -229 110 5 34 4 35 -31
10 -88 -63 -244 -129 -391 -166 -110 -27 -189 -50 -186 -53 4 -3 90 -28 130
-37 47 -11 204 -59 236 -73 108 -46 166 -75 194 -97 18 -14 35 -25 38 -25 3 0
6 16 6 35 0 42 35 98 72 116 38 19 101 17 137 -3 54 -32 74 -97 58 -189 -7
-36 -58 -150 -78 -171 -7 -7 -25 -30 -40 -51 -30 -39 -29 -39 25 -51 58 -13
105 -88 95 -151 -26 -163 -261 -154 -276 10 -2 14 -105 -99 -157 -171 -72
-101 -87 -145 -88 -254 -1 -78 3 -103 21 -140 41 -86 116 -149 207 -175 117
-34 235 1 319 95 l41 45 43 -46 c108 -116 268 -141 396 -62 67 42 128 116 144
176 14 52 9 183 -9 232 -17 46 -78 146 -104 170 -6 6 -35 38 -64 73 -53 62
-62 67 -66 35 -12 -78 -119 -132 -189 -96 -84 44 -109 132 -57 210 18 29 88
64 109 56 21 -8 16 3 -33 69 -87 119 -118 213 -102 306 6 30 62 92 85 93 88 7
94 6 136 -31 38 -35 42 -41 42 -87 l0 -50 40 27 c56 38 126 72 225 108 79 29
273 87 330 98 32 7 39 14 13 14 -16 0 -76 16 -283 74 -92 26 -206 79 -277 128
l-43 29 0 -37 c0 -110 -115 -180 -204 -124 -117 72 -73 250 62 252 23 0 42 2
42 4 0 2 -18 30 -39 64 -56 86 -106 211 -153 384 -22 83 -42 153 -44 155 -2 2
-6 -10 -9 -25z"/>
</g>
</svg>
